<svg enable-background="new 0 0 484.3 142.9" viewBox="0 0 484.3 142.9" xmlns="http://www.w3.org/2000/svg"><path d="m475.8 126.1c4.6 0 8.5 3.6 8.5 8.4s-3.9 8.5-8.5 8.5-8.5-3.6-8.5-8.5c0-4.8 3.9-8.4 8.5-8.4zm0 15.6c3.9 0 6.9-3.1 6.9-7.2 0-4-3-7.1-6.9-7.1s-7 3.1-7 7.1c.1 4.1 3.1 7.2 7 7.2zm-3.3-12.1h3.8c2.3 0 3.4.9 3.4 2.8 0 1.8-1.1 2.5-2.6 2.7l2.8 4.3h-1.7l-2.7-4.2h-1.6v4.2h-1.5v-9.8zm1.6 4.3h1.6c1.4 0 2.6-.1 2.6-1.6 0-1.3-1.1-1.5-2.2-1.5h-2z" fill="#003da5"/><path d="m469.1 33h-196.4l-132-33-140.7 38.3 3.6 13.3 137.1-37.3 130.2 32.6h198.2z" fill="#d50032"/><g fill="#003da5"><path d="m114.3 69.2h-12.7v5.7h10.1v7.3h-10.1v6.6h12.7v7.3h-21.8v-34.2h21.8z"/><path d="m155.7 61.9h9.2v34.2h-9.2z"/><path d="m393.2 61.9h9.2v34.2h-9.2z"/><path d="m298 96.1h-9.2v-34.2h21.9v7.3h-12.7v5.7h10.1v7.3h-10.1z"/><path d="m411.5 96.1h21.8v-8.7h-12.6v-25.5h-9.2z"/><path d="m255.4 61.9v18.6l-9.2-18.6h-10.2v34.2h8.9v-18.6l9.2 18.6h10.3v-34.2z"/><path d="m31.7 61.9 11.6 34.2h-9.4l-2.3-6.8h-9.5l-2.3 6.8h-8.7l11.6-34.2zm-2.3 20.2-2.6-7.6-2.6 7.6z"/><path d="m220.2 61.9 11.6 34.2h-9.4l-2.3-6.8h-9.5l-2.3 6.8h-8.7l11.6-34.2zm-2.3 20.2-2.6-7.6-2.6 7.6z"/><path d="m332 61.9 11.6 34.2h-9.4l-2.3-6.8h-9.5l-2.3 6.8h-8.7l11.6-34.2zm-2.3 20.2-2.6-7.6-2.6 7.6z"/><path d="m135.4 84.9 4.2 11.2h8.8l-5.2-13.9c3.5-1.9 5.2-4.8 5.2-9.5 0-3.5-1.2-6.7-3.6-8.6-2.2-1.8-5.1-2.2-7.7-2.2h-15.1v34.2h9.2v-11.2zm-4.2-8.5v-6.9h3.7c.9 0 1.8 0 2.6.5.9.6 1.4 1.7 1.4 2.9 0 3.1-2.4 3.5-4.4 3.5z"/><path d="m452.3 61.9-6.6 12.6-6.6-12.6h-9l11 20.9v13.3h9.2v-13.3l11-20.9z"/><path d="m75.6 96.1v-15.4l-6 15.4h-6.6l-6.1-15.4v15.4h-8.9v-34.2h10.2l8.1 20.5 8-20.5h10.2v34.2z"/><path d="m375.1 96.1v-15.4l-6 15.4h-6.6l-6.1-15.4v15.4h-8.8v-34.2h10.1l8.1 20.5 8-20.5h10.2v34.2z"/><path d="m192.9 71.6c-1.3-1.3-3-2.2-4.9-2.2-4.2 0-7.8 4.4-7.8 9.6s3.6 9.6 7.8 9.6c1.8 0 3.5-.8 4.9-2.2l4.8 5.8c-2.8 3-6.5 4.8-10.6 4.8-8.7 0-15.7-8.1-15.7-18 0-10 7-18 15.7-18 4.1 0 7.8 1.8 10.6 4.8z"/><path d="m11.1 103h450v39.9h-450v-39.9zm219.2 23.7 4.3 7.1h9l-5.3-8.8c3.6-1.2 5.3-3 5.3-6 0-2.2-1.2-4.2-3.7-5.4-2.2-1.1-5.1-1.4-7.8-1.4h-17.1v21.6h9.2v-7.1zm-.7-5.4c2 0 4.4-.2 4.4-2.2 0-.8-.5-1.5-1.4-1.9-.8-.3-1.8-.3-2.6-.3h-5.7v4.3h5.3zm-181.6 12.5h9.2v-21.6h-9.2zm226.2-15.1-2.8 7.3h5.5zm-15.6 15.1h9.8l1-2.5h9.6l1 2.5h9.8l-9.9-21.6h-11.3zm112.5-8.5c-.8 2.6-2.5 3.7-5.4 3.7-3.4 0-5.7-1.7-5.7-6.1s2.4-6.1 6.1-6.1c3.5 0 4.7 2.2 4.9 3.8h10.4c-1.2-8.6-9.7-9.2-15.3-9.2s-15.9.4-15.9 11.6 10.3 11.6 15.9 11.6 9.1-.9 11.4-2.5 3.3-3.9 3.9-6.7h-10.3zm27.1 8.5h25.9v-5.3h-16.8v-2.9h15.7v-5.3h-15.7v-2.9h16.8v-5.3h-25.9zm-321.3 0h8.8v-10.7h.1l9.8 10.7h10.1v-21.6h-8.8v10.6h-.1l-9.3-10.6h-10.6zm228.7 0h8.8v-10.7h.1l9.8 10.7h10.1v-21.6h-8.8v10.6h-.1l-9.3-10.6h-10.5v21.6zm-137.8-8.2c0 6.9 5.4 9 14.9 9 9.4 0 14.8-2.1 14.8-9v-13.4h-9.2v13.1c0 2.8-2.7 3.7-5.7 3.7s-5.7-.9-5.7-3.7v-13.1h-9.2v13.4zm-28.2.4c1.2.2 1.7.8 1.7 1.5 0 1-.8 1.8-3.7 1.8-1.4 0-2.4-.2-3.1-.5s-.9-.8-1-1.5h-11.1c0 6.4 7.8 7.3 14.8 7.3 10.3 0 15-2.5 15-7.8 0-3.7-2.9-5.7-7.5-6.3l-11-1.5c-.9-.1-1.2-.5-1.2-1.1 0-.9.9-1.5 3.7-1.5 1 0 2.1.1 2.9.5.8.3 1.4.8 1.4 1.7h10.7c-.3-4.6-4.6-7.1-15-7.1-7.6 0-13.5 1.5-13.5 7.1 0 3 1.9 5.5 6.4 6.1z"/></g></svg>